<?xml version="1.0" encoding="utf-8"?>
<!-- Generator: Adobe Illustrator 27.0.0, SVG Export Plug-In . SVG Version: 6.00 Build 0)  -->
<svg version="1.1" id="Layer_1" xmlns="http://www.w3.org/2000/svg" xmlns:xlink="http://www.w3.org/1999/xlink" x="0px" y="0px"
	 viewBox="0 0 146.5 126.8" style="enable-background:new 0 0 146.5 126.8;" xml:space="preserve">
<path d="M98.5,30.8C94,42.7,88.6,54.5,82.3,65.6c-6.1,10.8-19.5,31.2-34.7,22c-8.5-5.2-11.5-18.7-10.7-27.8s5.5-18.2,13.3-22.9
	C69.3,25.2,75.8,59.2,80,71.1c2.7,7.6,5.6,16.7,11.9,22.2s14.7,3.4,21.3-1.3c3.5-2.5,0.2-8.3-3.4-5.8c-3,2.1-6.9,4.7-10.8,3.5
	c-3.4-1.1-5.6-4.7-7.2-7.7c-4.9-9-7.3-19.3-10.8-28.9c-3.2-8.9-6.8-19.8-16.2-24c-7.8-3.5-16.3-0.2-22.4,5.2
	C34.9,40.9,30.5,51,30.1,61s3,22.8,10.7,29.9C55,103.7,73.1,91.7,81.9,79c9.8-14.1,17-30.5,23.1-46.5
	C106.6,28.5,100.1,26.7,98.5,30.8L98.5,30.8L98.5,30.8z"/>
</svg>
