<svg xmlns="http://www.w3.org/2000/svg" width="73.863" height="48" viewBox="0 0 73.863 48">
  <g id="forex_ropot" data-name="forex ropot" transform="translate(1.9 -7.7)">
    <path id="Path_901" data-name="Path 901" d="M-1.9,109.942v11.084a5.542,5.542,0,0,0,5.542,5.542H5.489V104.4H3.642A5.542,5.542,0,0,0-1.9,109.942Z" transform="translate(0 -81.937)" fill="#fff"/>
    <path id="Path_902" data-name="Path 902" d="M113.989,7.7H78.921A8.308,8.308,0,0,0,70.6,16.005V47.395A8.3,8.3,0,0,0,78.905,55.7h35.084a8.3,8.3,0,0,0,8.305-8.305V16.005A8.285,8.285,0,0,0,113.989,7.7ZM85.379,21.547a4.611,4.611,0,1,1-4.611,4.611A4.607,4.607,0,0,1,85.379,21.547Zm4.886,22.26a2.281,2.281,0,0,1-2.275,2.275H82.768a2.281,2.281,0,0,1-2.275-2.275v-.718a2.281,2.281,0,0,1,2.275-2.275h5.221a2.281,2.281,0,0,1,2.275,2.275Zm11.374,0a2.281,2.281,0,0,1-2.275,2.275H94.142a2.281,2.281,0,0,1-2.275-2.275v-.718a2.281,2.281,0,0,1,2.275-2.275h5.221a2.281,2.281,0,0,1,2.275,2.275Zm5.893-22.26a4.611,4.611,0,1,1-4.611,4.611A4.607,4.607,0,0,1,107.531,21.547Zm5.16,22.26a2.281,2.281,0,0,1-2.275,2.275H105.2a2.281,2.281,0,0,1-2.275-2.275v-.718a2.281,2.281,0,0,1,2.275-2.275h5.221a2.281,2.281,0,0,1,2.275,2.275Z" transform="translate(-61.431)" fill="#fff"/>
    <path id="Path_903" data-name="Path 903" d="M435.347,104.4H433.5v22.153h1.847a5.542,5.542,0,0,0,5.542-5.542V109.927A5.558,5.558,0,0,0,435.347,104.4Z" transform="translate(-368.926 -81.937)" fill="#fff"/>
  </g>
</svg>
