<?xml version="1.0" encoding="UTF-8"?>
<svg id="Layer_1" data-name="Layer 1" xmlns="http://www.w3.org/2000/svg" viewBox="0 0 483.75 322.11">
  <defs>
    <style>
      .cls-1, .cls-2 {
        fill: #fff;
      }

      .cls-2 {
        font-family: Hooge0553, 'hooge 05_53';
        font-size: 90.13px;
      }
    </style>
  </defs>
  <path d="m266.06,7.67h90.7c30.08,0,54.42,24.34,54.42,54.42v205.59c0,30.08-24.34,54.42-54.42,54.42H126.98c-30.08,0-54.42-24.34-54.42-54.42V62.09c0-30.08,24.34-54.42,54.42-54.42h139.08Zm-66.52,120.94c0-16.7-13.54-30.23-30.23-30.23s-30.23,13.54-30.23,30.23,13.54,30.23,30.23,30.23,30.23-13.54,30.23-30.23Zm114.89,30.23c16.7,0,30.23-13.54,30.23-30.23s-13.54-30.23-30.23-30.23-30.23,13.54-30.23,30.23,13.54,30.23,30.23,30.23ZM36.28,104.42h12.09v145.12h-12.09c-20.03,0-36.28-16.25-36.28-36.28v-72.56c0-20.03,16.25-36.28,36.28-36.28Zm411.19,0c20.03,0,36.28,16.25,36.28,36.28v72.56c0,20.03-16.25,36.28-36.28,36.28h-12.09V104.42h12.09Z"/>
  <g>
    <path class="cls-1" d="m81.09,244.65h23.97c.8,0,1.45.65,1.45,1.45v49.6h-26.86v-49.6c0-.8.65-1.45,1.45-1.45Z"/>
    <path class="cls-1" d="m132.15,218.04h30.05c.8,0,1.45.65,1.45,1.45v76.21h-32.95v-76.21c0-.8.65-1.45,1.45-1.45Z"/>
    <path class="cls-1" d="m196.11,197.7h30.05c.8,0,1.45.65,1.45,1.45v96.55h-32.95v-96.55c0-.8.65-1.45,1.45-1.45Z"/>
    <path class="cls-1" d="m260.39,225.81h30.05c.8,0,1.45.65,1.45,1.45v68.44h-32.95v-68.44c0-.8.65-1.45,1.45-1.45Z"/>
    <path class="cls-1" d="m320.04,184.3h30.05c.8,0,1.45.65,1.45,1.45v109.95h-32.95v-109.95c0-.8.65-1.45,1.45-1.45Z"/>
    <path class="cls-1" d="m370.61,140.84h30.05c.8,0,1.45.65,1.45,1.45v153.41h-32.95v-153.41c0-.8.65-1.45,1.45-1.45Z"/>
    <path class="cls-1" d="m229.64,167.97l-155.37,66.53c-.95.41-2.11-.18-2.59-1.3l-1.29-3c-.48-1.12-.11-2.36.84-2.77l155.37-66.53c.95-.41,2.11.18,2.59,1.3l1.29,3c.48,1.12.11,2.36-.84,2.77Z"/>
    <path class="cls-1" d="m274.15,216.86l-49.51-49.39c-1.12-1.12-1.32-2.72-.46-3.59l2.48-2.47c.87-.86,2.48-.66,3.6.46l49.51,49.39c1.12,1.12,1.32,2.72.46,3.59l-2.48,2.47c-.87.86-2.48.66-3.6-.46Z"/>
    <path class="cls-1" d="m272.84,212.57l133.22-117.87c.87-.77,2.24-.66,3.06.25l1.57,1.76c.81.91.77,2.28-.11,3.06l-133.22,117.87c-.87.77-2.24.66-3.06-.25l-1.57-1.76c-.81-.91-.77-2.28.11-3.06Z"/>
    <text class="cls-2" transform="translate(217.85 73.23)"><tspan x="0" y="0">$</tspan></text>
    <path class="cls-1" d="m413.65,95.78l-8.48,26.26c-.41,1.26-1.83,1.89-3.04,1.34l-.08-.04c-1.03-.47-1.55-1.64-1.18-2.72l7.87-23.39-.09-.09-23.62,7.9c-1.01.34-2.11-.08-2.64-1.01h0c-.7-1.22-.09-2.77,1.25-3.2l26.43-8.48c.71-.23,1.49-.08,2.08.39l.78.63c.71.58,1,1.53.72,2.4Z"/>
  </g>
</svg>