<?xml version="1.0" encoding="utf-8"?>
<!-- Generator: Adobe Illustrator 27.0.0, SVG Export Plug-In . SVG Version: 6.00 Build 0)  -->
<svg version="1.1" id="Layer_1" xmlns="http://www.w3.org/2000/svg" xmlns:xlink="http://www.w3.org/1999/xlink" x="0px" y="0px"
	 viewBox="0 0 612 792" style="enable-background:new 0 0 612 792;" xml:space="preserve">
<path id="download-solid" d="M345.6,149.3c-0.4-19.7-16.6-35.5-36.4-35.2c-19.3,0.3-34.9,15.9-35.2,35.2v271.4l-82.1-82.1
	c-14.2-13.8-36.9-13.5-50.6,0.7c-13.5,13.9-13.5,36,0,49.9l143.1,143.1c14,14,36.6,14,50.6,0l143.1-143.1
	c14.2-13.8,14.5-36.5,0.7-50.6c-13.8-14.2-36.5-14.5-50.6-0.7c-0.3,0.3-0.5,0.5-0.7,0.7l-82,82.1L345.6,149.3L345.6,149.3z
	 M95.1,507.1c-39.5,0-71.5,32.1-71.5,71.5v35.8c0,39.5,32.1,71.5,71.5,71.5h429.4c39.5,0,71.5-32.1,71.5-71.5v-35.8
	c0-39.5-32.1-71.5-71.5-71.5H410.9l-50.6,50.6c-27.9,27.9-73.2,27.9-101.2,0l0,0l-50.6-50.6H95.1L95.1,507.1z M506.6,569.8
	c14.8,0,26.9,12,26.9,26.8c0,14.8-12,26.9-26.8,26.9c-14.8,0-26.9-12-26.9-26.8l0,0C479.8,581.8,491.8,569.8,506.6,569.8
	L506.6,569.8z"/>
</svg>
