<svg id="ETORO" xmlns="http://www.w3.org/2000/svg" width="168.972" height="164.278" viewBox="0 0 168.972 164.278">
  <ellipse id="Ellipse_167" data-name="Ellipse 167" cx="84.486" cy="82.139" rx="84.486" ry="82.139" transform="translate(0 0)" fill="#54ba60"/>
  <path id="Path_1635" data-name="Path 1635" d="M262.248,312.37h16.007V289.625s-3.857-21.767-29.607-22.385c-22.806-.017-30.342,17.33-30.328,21.182v37.069c1.566,7.222,8.905,19.376,29.126,20.218a34.724,34.724,0,0,0,29.847-13.96l-14.321-8.3c-14.2,16.308-28.7,2.107-29.005-1.323v-9.749h28.281Zm-28.281-21.062c2.528-11.839,25.273-12.246,28.645,0v7.583H233.966Z" transform="translate(-165.816 -202.972)" fill="#fff"/>
  <path id="Path_1636" data-name="Path 1636" d="M101.362,135.761s-13.143,7.376-11.156,33.37c-12.046-2.412-39.075-11.6-29.787-35.383A201.017,201.017,0,0,1,95.08,89.7c-5.868,15.175-10.132,29.267-9.086,39.782,1.455,4.187,7.5,5.752,15.37,6.279Z" transform="translate(-44.441 -68.128)" fill="#fff"/>
  <path id="Path_1637" data-name="Path 1637" d="M447.342,135.761s13.143,7.376,11.156,33.37c12.046-2.412,39.075-11.6,29.787-35.383A201.017,201.017,0,0,0,453.624,89.7c5.868,15.175,10.132,29.267,9.086,39.782-1.455,4.187-7.5,5.752-15.37,6.279Z" transform="translate(-339.76 -68.128)" fill="#fff"/>
</svg>
