<svg xmlns="http://www.w3.org/2000/svg" width="30.285" height="30.286" viewBox="0 0 30.285 30.286">
  <g id="t" transform="translate(-730.961 -2549)">
    <path id="Path_814" data-name="Path 814" d="M213.873,51.14A15.143,15.143,0,1,1,198.73,66.283,15.145,15.145,0,0,1,213.873,51.14" transform="translate(532.231 2497.86)" fill="#53ae94"/>
    <path id="Path_815" data-name="Path 815" d="M224.388,74.823V72.607H229.6V69.23H215.417v3.377h5.209v2.212c-4.232.19-7.416,1-7.416,1.982s3.184,1.792,7.416,1.982v7.1h3.766v-7.1c4.223-.19,7.4-1,7.4-1.982s-3.176-1.792-7.4-1.982m0,3.361h0c-.108,0-.653.036-1.866.036-.973,0-1.654-.028-1.9-.04h0c-3.737-.158-6.53-.793-6.53-1.549s2.789-1.391,6.53-1.553v2.475c.245.016.944.057,1.912.057,1.16,0,1.746-.049,1.854-.057V75.074c3.733.162,6.518.8,6.518,1.553s-2.785,1.391-6.518,1.553" transform="translate(523.607 2487.367)" fill="#fff"/>
  </g>
</svg>
